<svg width="32" height="32" viewBox="0 0 32 32" fill="none" xmlns="http://www.w3.org/2000/svg">
<g clip-path="url(#clip0_26_1384)">
<path d="M22.6667 9.33333H17.3334V12H22.6667C24.8667 12 26.6667 13.8 26.6667 16C26.6667 18.2 24.8667 20 22.6667 20H17.3334V22.6667H22.6667C26.3467 22.6667 29.3334 19.68 29.3334 16C29.3334 12.32 26.3467 9.33333 22.6667 9.33333ZM14.6667 20H9.33341C7.13341 20 5.33341 18.2 5.33341 16C5.33341 13.8 7.13341 12 9.33341 12H14.6667V9.33333H9.33341C5.65341 9.33333 2.66675 12.32 2.66675 16C2.66675 19.68 5.65341 22.6667 9.33341 22.6667H14.6667V20ZM10.6667 14.6667H21.3334V17.3333H10.6667V14.6667Z" fill="#FFD600"/>
</g>
<defs>
<clipPath id="clip0_26_1384">
<rect width="32" height="32" fill="white"/>
</clipPath>
</defs>
</svg>
