<svg width="32" height="32" viewBox="0 0 32 32" fill="none" xmlns="http://www.w3.org/2000/svg">
<g clip-path="url(#clip0_26_1380)">
<path d="M16.0001 2.66667C10.8401 2.66667 6.66675 6.84001 6.66675 12C6.66675 19 16.0001 29.3333 16.0001 29.3333C16.0001 29.3333 25.3334 19 25.3334 12C25.3334 6.84001 21.1601 2.66667 16.0001 2.66667ZM9.33341 12C9.33341 8.32001 12.3201 5.33334 16.0001 5.33334C19.6801 5.33334 22.6667 8.32001 22.6667 12C22.6667 15.84 18.8267 21.5867 16.0001 25.1733C13.2267 21.6133 9.33341 15.8 9.33341 12Z" fill="#FFD600"/>
<path d="M16.0001 15.3333C17.841 15.3333 19.3334 13.841 19.3334 12C19.3334 10.1591 17.841 8.66667 16.0001 8.66667C14.1591 8.66667 12.6667 10.1591 12.6667 12C12.6667 13.841 14.1591 15.3333 16.0001 15.3333Z" fill="#FFD600"/>
</g>
<defs>
<clipPath id="clip0_26_1380">
<rect width="32" height="32" fill="white"/>
</clipPath>
</defs>
</svg>
